<?xml version="1.0" encoding="UTF-8" standalone="no"?>
<!-- Created with Inkscape (http://www.inkscape.org/) -->

<svg
   width="16.933331mm"
   height="12.7mm"
   viewBox="0 0 16.933331 12.7"
   version="1.1"
   id="svg5"
   xml:space="preserve"
   inkscape:version="1.2.1 (2ed6d7ae0b, 2022-08-22, custom)"
   sodipodi:docname="mail.svg"
   xmlns:inkscape="http://www.inkscape.org/namespaces/inkscape"
   xmlns:sodipodi="http://sodipodi.sourceforge.net/DTD/sodipodi-0.dtd"
   xmlns="http://www.w3.org/2000/svg"
   xmlns:svg="http://www.w3.org/2000/svg"><sodipodi:namedview
     id="namedview7"
     pagecolor="#ffffff"
     bordercolor="#000000"
     borderopacity="0.25"
     inkscape:showpageshadow="2"
     inkscape:pageopacity="0.0"
     inkscape:pagecheckerboard="0"
     inkscape:deskcolor="#d1d1d1"
     inkscape:document-units="mm"
     showgrid="false"
     inkscape:zoom="1.9855336"
     inkscape:cx="-99.973125"
     inkscape:cy="41.550543"
     inkscape:window-width="1846"
     inkscape:window-height="1016"
     inkscape:window-x="0"
     inkscape:window-y="0"
     inkscape:window-maximized="1"
     inkscape:current-layer="layer1" /><defs
     id="defs2" /><g
     inkscape:label="Слой 1"
     inkscape:groupmode="layer"
     id="layer1"
     transform="translate(-119.98611,-119.69336)"><path
       style="fill:#3d4251;stroke-width:0.264583;fill-opacity:1"
       d="m 120.51528,131.86419 c -0.49389,-0.49389 -0.52917,-0.88195 -0.52917,-5.82083 0,-4.93889 0.0353,-5.32695 0.52917,-5.82084 0.50397,-0.50397 0.88194,-0.52916 7.9375,-0.52916 7.05555,0 7.43353,0.0252 7.9375,0.52916 0.49388,0.49389 0.52916,0.88195 0.52916,5.82084 0,4.93888 -0.0353,5.32694 -0.52916,5.82083 -0.50397,0.50397 -0.88195,0.52917 -7.9375,0.52917 -7.05556,0 -7.43353,-0.0252 -7.9375,-0.52917 z m 15.56785,-0.34559 c 0.22073,-0.26596 -0.33573,-0.96396 -2.415,-3.02929 l -2.70181,-2.6837 -1.05834,0.64668 c -1.33231,0.8141 -1.62554,0.80976 -2.87995,-0.0426 l -1.01841,-0.69203 -2.737,2.72769 c -2.10636,2.09919 -2.67092,2.80732 -2.4502,3.07328 0.41789,0.50352 14.84283,0.50352 15.26071,0 z m -10.54703,-5.99919 c -0.003,-0.0756 -1.13454,-0.88222 -2.51354,-1.79243 l -2.50728,-1.65491 v 4.29552 4.29552 l 2.51354,-2.50309 c 1.38245,-1.3767 2.51072,-2.56497 2.50728,-2.64061 z m 10.85418,0.93077 v -4.09109 l -2.53207,1.62013 -2.53206,1.62012 2.46069,2.47097 c 1.35338,1.35903 2.49281,2.47096 2.53206,2.47096 0.0392,0 0.0714,-1.84099 0.0714,-4.09109 z m -3.63498,-2.36536 c 3.59794,-2.29698 4.06559,-2.79668 3.31748,-3.5448 -0.23165,-0.23165 -2.29762,-0.3175 -7.64052,-0.3175 -6.11195,0 -7.37627,0.0642 -7.64502,0.38798 -0.17709,0.21339 -0.28097,0.50775 -0.23083,0.65413 0.18843,0.55016 7.50267,5.30818 8.0317,5.22475 0.29271,-0.0462 2.16795,-1.12822 4.16719,-2.40456 z"
       id="path302" /></g></svg>
